<svg width="82" height="16" viewBox="0 0 82 16" fill="none" xmlns="http://www.w3.org/2000/svg">
<mask id="mask0_1_4" style="mask-type:alpha" maskUnits="userSpaceOnUse" x="0" y="3" width="12" height="13">
<path fill-rule="evenodd" clip-rule="evenodd" d="M0 3.71845H11.5857V15.3045H0V3.71845Z" fill="white"/>
</mask>
<g mask="url(#mask0_1_4)">
<path fill-rule="evenodd" clip-rule="evenodd" d="M5.79266 12.0872H3.31032V6.93671H5.79266C7.16379 6.93671 8.2747 8.08988 8.2747 9.51182C8.2747 10.9341 7.16379 12.0872 5.79266 12.0872M9.88858 5.41406C8.77736 4.30375 7.24338 3.71845 5.67205 3.71845H0.61797C0.276643 3.71845 -9.15527e-05 3.99488 -9.15527e-05 4.3362V14.6868C-9.15527e-05 15.0278 0.276643 15.3046 0.61797 15.3046H5.67144C7.24215 15.3046 8.77675 14.7196 9.88797 13.6096C11.02 12.4784 11.5857 11.1122 11.5857 9.51151C11.5857 7.9111 11.02 6.54518 9.88858 5.41406" fill="#484848"/>
</g>
<mask id="mask1_1_4" style="mask-type:alpha" maskUnits="userSpaceOnUse" x="24" y="3" width="12" height="13">
<path fill-rule="evenodd" clip-rule="evenodd" d="M24.1684 3.71845H35.7555V15.3045H24.1684V3.71845Z" fill="white"/>
</mask>
<g mask="url(#mask1_1_4)">
<path fill-rule="evenodd" clip-rule="evenodd" d="M32.4448 10.5817V4.3362C32.4448 3.99488 32.7212 3.71845 33.0631 3.71845H35.1377C35.4793 3.71845 35.7555 3.99488 35.7555 4.3362V15.3046H31.5383C31.31 15.3046 31.1003 15.1784 30.9928 14.9767L27.4779 8.36722V14.6868C27.4779 15.0278 27.2012 15.3046 26.8602 15.3046H24.1684V4.3362C24.1684 3.99488 24.4449 3.71845 24.7859 3.71845H28.3859C28.6136 3.71845 28.823 3.84335 28.9308 4.04416L32.4448 10.5817Z" fill="#484848"/>
</g>
<path fill-rule="evenodd" clip-rule="evenodd" d="M14.5602 15.3045H11.5761L14.8311 4.16315C14.9083 3.89928 15.1501 3.71836 15.4244 3.71836H19.4588C19.7331 3.71836 19.9749 3.89928 20.0521 4.16315L23.3071 15.3045H20.3263C20.0514 15.3045 19.8099 15.1236 19.7328 14.86L19.3648 13.6037H16.4873L17.2979 10.8296C17.3744 10.566 17.6159 10.3848 17.8908 10.3848H18.4226L17.4405 6.93662L15.1541 14.8582C15.0773 15.1226 14.8354 15.3045 14.5602 15.3045" fill="#484848"/>
<path fill-rule="evenodd" clip-rule="evenodd" d="M39.6007 15.3045H36.6172L39.8722 4.16315C39.949 3.89928 40.1906 3.71836 40.4651 3.71836H44.4998C44.7741 3.71836 45.016 3.89928 45.0931 4.16315L48.3481 15.3045H45.3668C45.0919 15.3045 44.8504 15.1236 44.7738 14.86L44.4056 13.6037H41.5286L42.3383 10.8296C42.4155 10.566 42.6573 10.3848 42.9319 10.3848H43.4636L42.4816 6.93662L40.1945 14.8582C40.118 15.1226 39.8762 15.3045 39.6007 15.3045" fill="#484848"/>
<mask id="mask2_1_4" style="mask-type:alpha" maskUnits="userSpaceOnUse" x="71" y="3" width="11" height="13">
<path fill-rule="evenodd" clip-rule="evenodd" d="M71.1731 3.71845H81.1041V15.3045H71.1731V3.71845Z" fill="white"/>
</mask>
<g mask="url(#mask2_1_4)">
<path fill-rule="evenodd" clip-rule="evenodd" d="M76.9661 12.0863C77.1917 12.0863 77.3867 12.0006 77.5496 11.8279C77.7125 11.6568 77.7933 11.4514 77.7933 11.2123C77.7933 10.9739 77.7125 10.7684 77.5496 10.5967C77.3867 10.4247 77.1917 10.339 76.9661 10.339H74.3913V12.0863H76.9661ZM74.3913 6.93702V8.68498H76.9661C77.1917 8.68498 77.3867 8.59896 77.5496 8.42722C77.7125 8.25549 77.7933 8.04978 77.7933 7.811C77.7933 7.57192 77.7125 7.36651 77.5496 7.19478C77.3867 7.02273 77.1917 6.93702 76.9661 6.93702H74.3913ZM80.268 9.51151C80.8012 10.1293 81.0795 10.8505 81.1028 11.6755C81.1294 12.6428 80.7568 13.5927 80.0717 14.2763C79.3857 14.9617 78.5564 15.3046 77.5866 15.3046H71.7911C71.4498 15.3046 71.1731 15.0278 71.1731 14.6868V4.3362C71.1731 3.99488 71.4498 3.71845 71.7911 3.71845H77.5793C78.4236 3.71845 79.2516 4.01049 79.8838 4.57039C80.6968 5.29039 81.1037 6.17875 81.1037 7.2358C81.1037 8.10733 80.8248 8.86559 80.268 9.51151V9.51151Z" fill="#484848"/>
</g>
<path fill-rule="evenodd" clip-rule="evenodd" d="M56.9722 0.943939L54.2186 10.3388L52.4141 4.16312C52.3369 3.89924 52.0954 3.71833 51.8208 3.71833H49.299C49.0241 3.71833 48.7825 3.89924 48.7057 4.16312L47.3924 8.66037L49.1052 14.5946L50.559 9.61792L52.0908 14.86C52.1673 15.1235 52.4092 15.3044 52.6834 15.3044H55.7535C56.0281 15.3044 56.2697 15.1235 56.3468 14.86L60.5505 0.500061H57.5652C57.2909 0.500061 57.0494 0.680979 56.9722 0.943939" fill="#484848"/>
<path fill-rule="evenodd" clip-rule="evenodd" d="M69.1421 6.93665L70.0932 3.71839H63.8618H61.1691C60.8275 3.71839 60.5508 3.99512 60.5508 4.33614V7.02849V11.9941V14.6868C60.5508 15.0278 60.8275 15.3045 61.1691 15.3045H63.8618H70.0932V12.0862H63.8618V11.1207H66.0359L66.9601 7.90247H63.8618V6.93665H69.1421Z" fill="#484848"/>
</svg>
