<svg width="60" height="80" viewBox="0 0 60 80" fill="none" xmlns="http://www.w3.org/2000/svg">
<path d="M0.00878906 0V80H59.0916V0H0.00878906ZM57.745 78.6295H1.25365V1.53213H57.745V78.6295Z" fill="#C60000"/>
<path d="M7.12482 37.1006H13.5107L15.1087 45.9702L16.7066 37.1006H22.8052V41.1105C22.6137 41.3199 22.476 41.5354 22.3982 41.7568C22.3204 41.9783 22.2726 42.2655 22.2546 42.6186C22.2366 42.9777 22.2247 43.6002 22.2247 44.4859V53.3555C22.2247 53.948 22.2366 54.379 22.2546 54.6602C22.2726 54.9415 22.3204 55.1809 22.4042 55.3784C22.488 55.5759 22.6197 55.7435 22.8052 55.8871V60.1125H16.8503V55.8991C17.0178 55.7914 17.1495 55.6777 17.2333 55.54C17.3171 55.4084 17.3769 55.2468 17.4009 55.0493C17.4308 54.8577 17.4428 54.6004 17.4428 54.2832C17.4428 54.0258 17.4428 53.7984 17.4368 53.6009C17.4308 53.4034 17.4308 53.182 17.4308 52.9366V47.8674L15.2523 60.1185H13.798L11.6195 48.0829V53.3615C11.6195 53.8882 11.6314 54.2952 11.6494 54.5824C11.6673 54.8697 11.7212 55.1271 11.811 55.3545C11.9008 55.5819 12.0324 55.7615 12.206 55.8931V60.1185H7.12482V55.8991C7.36422 55.8273 7.52581 55.6896 7.60361 55.4921C7.68142 55.2887 7.71733 55.0014 7.71733 54.6363C7.71733 54.4627 7.71733 54.3131 7.71134 54.1874C7.70536 54.0618 7.70536 53.9301 7.70536 53.7924V43.4386C7.70536 43.289 7.70536 43.1573 7.71134 43.0376C7.71134 42.9179 7.71733 42.7743 7.71733 42.5947C7.71733 42.2177 7.67543 41.9064 7.59763 41.673C7.51983 41.4336 7.36422 41.2481 7.12482 41.1164V37.1006Z" fill="#C60000"/>
<path d="M24.0381 37.1006H37.8393V47.4485H34.1705V43.4386C34.1705 43.1214 34.1286 42.858 34.0448 42.6426C33.9611 42.4271 33.7576 42.2715 33.4344 42.1758V53.577C33.4344 54.9415 33.6319 55.7136 34.0209 55.8991V60.1244H27.8565V56.1146C28.2515 55.8871 28.455 55.2527 28.455 54.2114C28.455 54.0019 28.455 53.8403 28.449 53.7326C28.443 53.6249 28.443 53.4992 28.443 53.3675V42.1758C28.1198 42.1758 27.9163 42.3074 27.8325 42.5708C27.7487 42.8341 27.7069 43.1932 27.7069 43.654V47.4544H24.0381V37.1006Z" fill="#C60000"/>
<path d="M39.1739 37.1006H46.5173C50.0424 37.1006 51.802 39.1414 51.802 43.2231C51.802 44.4261 51.7062 45.3956 51.5087 46.1258C51.3112 46.856 51.0479 47.4066 50.7128 47.7836C50.3776 48.1607 49.9587 48.4659 49.4499 48.7113C50.2579 48.9028 50.8025 49.3038 51.0838 49.9142C51.3651 50.5187 51.5087 51.3207 51.5087 52.3022V53.9899C51.5087 54.5525 51.5387 55.0014 51.6045 55.3306C51.6703 55.6597 51.8319 55.9171 52.0953 56.1026V60.1125H46.661C46.4635 59.2686 46.3677 57.6467 46.3677 55.2528V53.1401C46.3677 52.4039 46.2301 51.9012 45.9548 51.6439C45.6795 51.3865 45.2785 51.177 44.7518 51.0274V53.7745C44.7518 54.4089 44.7877 54.9296 44.8535 55.3365C44.9194 55.7435 45.081 56.0009 45.3383 56.0966V60.1065H39.1739V56.0966C39.4372 55.8034 39.5988 55.4682 39.6646 55.0852C39.7305 54.7021 39.7604 54.1216 39.7604 53.3496V43.8635C39.7604 43.7139 39.7604 43.5822 39.7664 43.4625C39.7664 43.3428 39.7724 43.1992 39.7724 43.0196C39.7724 42.6426 39.7305 42.3314 39.6527 42.098C39.5749 41.8586 39.4133 41.673 39.1739 41.5414V37.1006ZM44.7578 41.9603V46.6046H45.1049C45.5657 46.6046 45.9428 46.4789 46.2361 46.2275C46.5293 45.9762 46.6789 45.4555 46.6789 44.6655C46.6789 44.4979 46.673 44.3722 46.667 44.2825C46.6011 43.271 46.4395 42.6306 46.1882 42.3613C45.9368 42.092 45.458 41.9603 44.7578 41.9603Z" fill="#C60000"/>
<path d="M3.95882 68.2822H5.58072L5.97572 70.4607L6.39467 68.2822H7.94475V69.2757C7.87293 69.3535 7.83104 69.4313 7.81907 69.5151C7.8071 69.5989 7.79513 69.7904 7.79513 70.0956V72.2741C7.79513 72.4896 7.80111 72.6392 7.81907 72.723C7.83104 72.8068 7.87293 72.8726 7.94475 72.9205V73.9499H6.43058V72.9205C6.48444 72.8906 6.52035 72.8487 6.5383 72.7888C6.55626 72.729 6.56823 72.6452 6.56823 72.5375V70.9335L6.01163 73.9559H5.65254L5.09595 70.9874V72.2801C5.09595 72.4836 5.10193 72.6332 5.11988 72.723C5.13784 72.8128 5.17973 72.8846 5.24557 72.9265V73.9559H3.95882V72.9265C4.01268 72.9085 4.04859 72.8786 4.06654 72.8248C4.0845 72.7769 4.09647 72.705 4.09647 72.6093V69.6468C4.09647 69.5271 4.0845 69.4373 4.06056 69.3894C4.03662 69.3415 4.0067 69.3056 3.95882 69.2817V68.2822Z" fill="#C60000"/>
<path d="M8.35771 69.7777H9.62052V72.5008C9.62052 72.6384 9.63249 72.7521 9.65643 72.8419C9.68037 72.9317 9.7103 72.9736 9.75817 72.9736V73.9491H8.35771V73.0274C8.40559 72.9915 8.43552 72.9556 8.44749 72.9077C8.45945 72.8659 8.47142 72.806 8.47142 72.7282V71.1961C8.47142 71.0764 8.46544 70.9926 8.44749 70.9447C8.43552 70.8968 8.40559 70.849 8.35771 70.7951V69.7777ZM8.39362 68.838C8.39362 68.6286 8.45946 68.467 8.58514 68.3533C8.71082 68.2395 8.85446 68.1797 9.01605 68.1797C9.18363 68.1797 9.32128 68.2336 9.44098 68.3473C9.56067 68.461 9.62052 68.6226 9.62052 68.838C9.62052 69.0714 9.56067 69.245 9.43499 69.3587C9.31529 69.4724 9.16567 69.5323 8.98612 69.5323C8.81855 69.5323 8.6809 69.4664 8.56718 69.3348C8.45347 69.1971 8.39362 69.0355 8.39362 68.838Z" fill="#C60000"/>
<path d="M10.0694 69.7781H11.3681V69.9337C11.4758 69.832 11.5895 69.7602 11.7033 69.7362C11.823 69.7063 11.9546 69.6943 12.0983 69.6943C12.4334 69.6943 12.6668 69.844 12.7985 70.1372C12.8763 70.3108 12.9182 70.5322 12.9182 70.7896V72.4474C12.9182 72.7407 12.9661 72.9322 13.0678 73.0219V73.9436H11.805C11.805 73.6563 11.799 73.4289 11.793 73.2613C11.7871 73.0878 11.7751 72.8903 11.7691 72.6569V71.3462C11.7691 71.2265 11.7452 71.1128 11.7033 71.017C11.6614 70.9212 11.6015 70.8734 11.5177 70.8734C11.4699 70.8734 11.416 70.8913 11.3681 70.9272V72.4953C11.3681 72.7107 11.416 72.8663 11.5058 72.9681V73.9436H10.0694V72.9681C10.1352 72.9202 10.1771 72.8604 10.1951 72.7766C10.213 72.6928 10.219 72.585 10.219 72.4474V71.1906C10.219 71.0828 10.207 70.9931 10.1831 70.9212C10.1592 70.8494 10.1233 70.8075 10.0694 70.7896V69.7781Z" fill="#C60000"/>
<path d="M13.4628 68.2822H14.7615V69.8862C14.8812 69.7605 15.0608 69.6947 15.2942 69.6947C15.5515 69.6947 15.773 69.7784 15.9525 69.94C16.168 70.1375 16.2757 70.4248 16.2757 70.7959V72.3998C16.2757 72.5913 16.2817 72.729 16.2997 72.8128C16.3176 72.8966 16.3595 72.9504 16.4253 72.9744V73.9499H15.1984C15.1745 73.7045 15.1565 73.4891 15.1446 73.3095C15.1326 73.124 15.1266 72.9265 15.1266 72.711V71.2986C15.1266 71.1669 15.1087 71.0532 15.0668 70.9634C15.0249 70.8737 14.971 70.8258 14.9052 70.8258C14.8453 70.8497 14.8034 70.8677 14.7675 70.8797V72.5554C14.7675 72.6632 14.7735 72.7589 14.7855 72.8307C14.7974 72.9026 14.8274 72.9504 14.8633 72.9744V73.9499H13.4628V72.9744C13.5286 72.9265 13.5705 72.8726 13.5885 72.8068C13.6065 72.741 13.6124 72.6392 13.6124 72.5076V69.7904C13.6124 69.6408 13.6005 69.5331 13.5765 69.4612C13.5526 69.3954 13.5167 69.3535 13.4628 69.3356V68.2822Z" fill="#C60000"/>
<path d="M18.4363 68.2822H21.9075V70.8258H20.9918V69.8323C20.9918 69.7366 20.9798 69.6647 20.9499 69.6228C20.926 69.5809 20.8721 69.551 20.8063 69.5331V72.34C20.8063 72.4896 20.8183 72.6213 20.8422 72.723C20.8661 72.8247 20.902 72.8906 20.9559 72.9145V73.9439H19.3938V72.9684C19.4477 72.9385 19.4836 72.8846 19.5076 72.8008C19.5315 72.717 19.5435 72.6273 19.5435 72.5315V69.5331C19.4657 69.5331 19.4118 69.563 19.3938 69.6288C19.3699 69.6947 19.3579 69.7784 19.3579 69.8802V70.8198H18.4422V68.2822H18.4363Z" fill="#C60000"/>
<path d="M22.2008 69.7785H23.4277V70.0418C23.4875 69.9281 23.5414 69.8503 23.5833 69.8084C23.6671 69.7187 23.7628 69.6768 23.8765 69.6768H24.0501V71.1909C24.0142 71.179 23.9663 71.173 23.8885 71.173C23.7628 71.173 23.6551 71.2209 23.5653 71.3226C23.4755 71.4243 23.4277 71.55 23.4277 71.7176V72.5016C23.4277 72.6513 23.4456 72.771 23.4755 72.8547C23.5055 72.9385 23.5533 72.9984 23.6132 73.0223V73.95H22.2008V73.0283C22.2666 72.9565 22.3085 72.8847 22.3264 72.8128C22.3444 72.741 22.3504 72.6393 22.3504 72.5016V71.1909C22.3504 71.1131 22.3384 71.0353 22.3205 70.9575C22.3025 70.8737 22.2606 70.8019 22.2008 70.7421V69.7785Z" fill="#C60000"/>
<path d="M24.4331 70.1971C24.6127 70.0056 24.8221 69.8739 25.0555 69.8021C25.289 69.7302 25.5343 69.6943 25.7977 69.6943C26.1268 69.6943 26.3962 69.7841 26.6116 69.9577C26.8809 70.1791 27.0126 70.5023 27.0126 70.9332V72.603C27.0126 72.7167 27.0246 72.8065 27.0545 72.8723C27.0904 72.9262 27.1203 72.9741 27.1622 73.0219V73.9436H25.9473V73.6324C25.8455 73.7222 25.7498 73.806 25.654 73.8957C25.5104 73.9975 25.3488 74.0513 25.1633 74.0513C24.9119 74.0513 24.7084 73.9616 24.5588 73.782C24.3793 73.5666 24.2835 73.2434 24.2835 72.8185C24.2835 72.4833 24.3673 72.202 24.5349 71.9806C24.6725 71.801 24.8401 71.6813 25.0496 71.6155L25.8695 71.2504V71.0409C25.8695 70.9452 25.8575 70.8614 25.8396 70.7956C25.8216 70.7297 25.7797 70.6998 25.7199 70.6938H25.672C25.6002 70.6938 25.5463 70.7417 25.5164 70.8434C25.4805 70.9452 25.4625 71.0828 25.4625 71.2504H24.4331V70.1971ZM25.8695 72.6988V72.214C25.7677 72.2499 25.6959 72.2798 25.648 72.3097C25.4984 72.4055 25.4266 72.5132 25.4266 72.6509C25.4266 72.8244 25.4745 72.9142 25.5762 72.9142C25.6241 72.9142 25.684 72.8903 25.7438 72.8424C25.8096 72.7885 25.8515 72.7406 25.8695 72.6988Z" fill="#C60000"/>
<path d="M27.4435 69.7781H28.7422V69.9337C28.8499 69.832 28.9637 69.7602 29.0774 69.7362C29.1971 69.7063 29.3287 69.6943 29.4724 69.6943C29.8075 69.6943 30.0409 69.844 30.1726 70.1372C30.2504 70.3108 30.2923 70.5322 30.2923 70.7896V72.4474C30.2923 72.7407 30.3402 72.9322 30.4419 73.0219V73.9436H29.1791C29.1791 73.6563 29.1731 73.4289 29.1671 73.2613C29.1612 73.0878 29.1492 72.8903 29.1432 72.6569V71.3462C29.1432 71.2265 29.1193 71.1128 29.0774 71.017C29.0355 70.9212 28.9756 70.8734 28.8918 70.8734C28.844 70.8734 28.7901 70.8913 28.7422 70.9272V72.4953C28.7422 72.7107 28.7901 72.8663 28.8799 72.9681V73.9436H27.4435V72.9681C27.5093 72.9202 27.5512 72.8604 27.5692 72.7766C27.5871 72.6928 27.5931 72.585 27.5931 72.4474V71.1906C27.5931 71.0828 27.5812 70.9931 27.5572 70.9212C27.5333 70.8494 27.4974 70.8075 27.4435 70.7896V69.7781Z" fill="#C60000"/>
<path d="M32.5666 68.2822H34.0808V69.2757C34.0448 69.3296 34.0149 69.3954 33.997 69.4732C33.979 69.557 33.967 69.6707 33.967 69.8323V70.4607H34.4159V69.6049C34.4159 69.4732 34.38 69.3595 34.3022 69.2757V68.2822H35.8523V69.2757C35.7984 69.3535 35.7565 69.4373 35.7326 69.5391C35.7086 69.6348 35.6907 69.7306 35.6907 69.8203L35.7027 70.0478V72.2801C35.7027 72.4597 35.7086 72.6033 35.7266 72.711C35.7446 72.8188 35.7865 72.9085 35.8523 72.9744V73.9499H34.3022V72.9744C34.3501 72.9265 34.38 72.8666 34.398 72.8008C34.4099 72.729 34.4159 72.6332 34.4159 72.5016V71.556H33.967V72.34C33.967 72.5075 33.973 72.6392 33.985 72.729C33.997 72.8188 34.0269 72.8966 34.0808 72.9684V73.9439H32.5666V72.9684C32.6204 72.9025 32.6564 72.8248 32.6803 72.735C32.7042 72.6392 32.7162 72.5375 32.7162 72.4297V69.8862C32.7162 69.7006 32.7042 69.569 32.6803 69.4852C32.6564 69.4014 32.6204 69.3356 32.5666 69.2757V68.2822Z" fill="#C60000"/>
<path d="M36.2114 72.4893V71.029C36.2114 70.5322 36.3071 70.1791 36.5046 69.9876C36.6962 69.7901 37.0493 69.6943 37.552 69.6943C38.0607 69.6943 38.4078 69.7901 38.5934 69.9756C38.7789 70.1612 38.8747 70.5143 38.8747 71.035V72.603C38.8747 73.1656 38.7669 73.5486 38.5455 73.7401C38.36 73.9077 38.0248 73.9915 37.546 73.9915C37.0672 73.9915 36.7321 73.8957 36.5405 73.7102C36.3191 73.4888 36.2114 73.0818 36.2114 72.4893ZM37.7674 72.597V70.9811C37.7674 70.8734 37.7435 70.7836 37.7016 70.7237C37.6597 70.6639 37.6059 70.634 37.546 70.634C37.4862 70.634 37.4323 70.6699 37.3904 70.7357C37.3485 70.8015 37.3246 70.9033 37.3246 71.035V72.603C37.3246 72.7347 37.3485 72.8364 37.3904 72.9142C37.4323 72.986 37.4862 73.0219 37.546 73.0219C37.6059 73.0219 37.6597 72.986 37.7016 72.9142C37.7495 72.8304 37.7674 72.7287 37.7674 72.597Z" fill="#C60000"/>
<path d="M39.2457 68.2822H40.5085V72.3938C40.5085 72.6033 40.5145 72.747 40.5265 72.8248C40.5384 72.9026 40.5803 72.9684 40.6462 73.0223V73.9439H39.2457V73.0223C39.3115 72.9744 39.3534 72.9085 39.3714 72.8248C39.3894 72.735 39.3953 72.6273 39.3953 72.5016V69.7844C39.3953 69.6288 39.3894 69.5091 39.3714 69.4313C39.3534 69.3535 39.3115 69.2997 39.2457 69.2817V68.2822Z" fill="#C60000"/>
<path d="M40.9335 72.6985V70.9748C40.9335 70.6337 40.9813 70.3584 41.0771 70.1549C41.2028 69.8736 41.4122 69.7359 41.7055 69.7359H41.7773C41.9269 69.7359 42.0407 69.7479 42.1304 69.7778C42.2142 69.8078 42.3219 69.8736 42.4476 69.9753V69.73C42.4476 69.4666 42.4117 69.311 42.3339 69.2572V68.2637H43.5608V72.2496C43.5608 72.5369 43.5728 72.7284 43.5907 72.8122C43.6087 72.896 43.6446 72.9558 43.6985 72.9977V73.9194H42.4416V73.7638C42.3758 73.8595 42.2741 73.9254 42.1424 73.9613C42.0048 74.0032 41.8611 74.0211 41.7055 74.0211C41.4781 74.0211 41.2985 73.9314 41.1669 73.7518C41.0113 73.5423 40.9335 73.2311 40.9335 72.8182V72.6985ZM42.4416 72.8062V70.9808C42.4117 70.9569 42.3758 70.9389 42.3339 70.9269C42.292 70.915 42.2561 70.909 42.2142 70.909C42.0885 70.909 42.0287 71.0526 42.0287 71.3459V72.1838C42.0287 72.6506 42.1005 72.878 42.2501 72.878C42.3399 72.8421 42.3998 72.8182 42.4416 72.8062Z" fill="#C60000"/>
<path d="M44.0695 69.7777H45.3323V72.5008C45.3323 72.6384 45.3443 72.7521 45.3683 72.8419C45.3922 72.9317 45.4221 72.9736 45.47 72.9736V73.9491H44.0695V73.0274C44.1174 72.9915 44.1473 72.9556 44.1593 72.9077C44.1713 72.8659 44.1832 72.806 44.1832 72.7282V71.1961C44.1832 71.0764 44.1773 70.9926 44.1593 70.9447C44.1473 70.8968 44.1174 70.849 44.0695 70.7951V69.7777ZM44.1054 68.838C44.1054 68.6286 44.1713 68.467 44.297 68.3533C44.4226 68.2395 44.5663 68.1797 44.7279 68.1797C44.8954 68.1797 45.0331 68.2336 45.1528 68.3473C45.2725 68.461 45.3323 68.6226 45.3323 68.838C45.3323 69.0714 45.2725 69.245 45.1468 69.3587C45.0271 69.4724 44.8775 69.5323 44.6979 69.5323C44.5304 69.5323 44.3927 69.4664 44.279 69.3348C44.1593 69.1971 44.1054 69.0355 44.1054 68.838Z" fill="#C60000"/>
<path d="M45.7752 69.7781H47.0739V69.9337C47.1817 69.832 47.2954 69.7602 47.4091 69.7362C47.5288 69.7063 47.6605 69.6943 47.8041 69.6943C48.1393 69.6943 48.3727 69.844 48.5043 70.1372C48.5821 70.3108 48.624 70.5322 48.624 70.7896V72.4474C48.624 72.7407 48.6719 72.9322 48.7737 73.0219V73.9436H47.5108C47.5108 73.6563 47.5049 73.4289 47.4989 73.2613C47.4929 73.0878 47.4809 72.8903 47.4749 72.6569V71.3462C47.4749 71.2265 47.451 71.1128 47.4091 71.017C47.3672 70.9212 47.3074 70.8734 47.2236 70.8734C47.1757 70.8734 47.1218 70.8913 47.0739 70.9272V72.4953C47.0739 72.7107 47.1218 72.8663 47.2116 72.9681V73.9436H45.7752V72.9681C45.8411 72.9202 45.883 72.8604 45.9009 72.7766C45.9189 72.6928 45.9249 72.585 45.9249 72.4474V71.1906C45.9249 71.0828 45.9129 70.9931 45.8889 70.9212C45.865 70.8494 45.8291 70.8075 45.7752 70.7896V69.7781Z" fill="#C60000"/>
<path d="M49.1866 72.8545V71.1787C49.1866 70.6879 49.2345 70.3468 49.3303 70.1433C49.4559 69.868 49.6893 69.7363 50.0305 69.7363C50.1921 69.7363 50.3237 69.7543 50.4315 69.7842C50.5392 69.8141 50.6409 69.9039 50.7367 70.0416V69.7782H51.9995V70.7358C51.8978 70.8136 51.8499 70.9632 51.8499 71.1907V74.0993C51.8499 74.7337 51.7422 75.1586 51.5327 75.386C51.3591 75.5716 51.0539 75.6673 50.623 75.6673H50.5093C50.2818 75.6673 50.0425 75.6135 49.7851 75.5117C49.5337 75.41 49.3542 75.2843 49.2524 75.1467V74.1532H50.3178C50.3178 74.3267 50.3297 74.4464 50.3477 74.5182C50.3656 74.5901 50.4195 74.62 50.5033 74.62C50.5931 74.62 50.6529 74.596 50.6828 74.5422C50.7128 74.4883 50.7247 74.4045 50.7247 74.2908V73.7342C50.635 73.83 50.5392 73.9018 50.4315 73.9617C50.3237 74.0215 50.1981 74.0514 50.0544 74.0514C49.7671 74.0514 49.5517 73.9437 49.4021 73.7342C49.2584 73.5128 49.1866 73.2195 49.1866 72.8545ZM50.7367 72.8066V70.9273C50.6888 70.8914 50.623 70.8735 50.5512 70.8735C50.4015 70.8735 50.3297 71.0111 50.3297 71.2924V72.2141C50.3297 72.4594 50.3417 72.627 50.3716 72.7288C50.4015 72.8305 50.4554 72.8784 50.5392 72.8784C50.5512 72.8784 50.5811 72.8664 50.635 72.8485C50.6769 72.8245 50.7128 72.8126 50.7367 72.8066Z" fill="#C60000"/>
<path d="M52.3945 72.3341H53.4718V72.6453C53.4718 72.753 53.4957 72.8428 53.5436 72.9086C53.5915 72.9744 53.6454 73.0104 53.7052 73.0104C53.7651 73.0104 53.8129 72.9864 53.8548 72.9385C53.8967 72.8907 53.9147 72.8188 53.9147 72.7351V72.6453C53.8848 72.4598 53.7232 72.3221 53.4299 72.2263C53.0229 72.1007 52.8135 72.0288 52.7955 72.0169C52.6399 71.9211 52.5202 71.7835 52.4364 71.5919C52.3526 71.4004 52.3107 71.1969 52.3107 70.9695C52.3107 70.7421 52.3526 70.5206 52.4424 70.2992C52.5322 70.0778 52.6459 69.9222 52.7955 69.8204C52.8913 69.7606 53.011 69.7187 53.1546 69.6828C53.2982 69.6469 53.4419 69.6289 53.5855 69.6289C53.7531 69.6289 53.9147 69.6528 54.0643 69.6947C54.2139 69.7366 54.3396 69.7845 54.4414 69.8384C54.6568 69.9401 54.8064 70.0778 54.9022 70.2394V71.2328H53.8728V70.9695C53.8728 70.8618 53.8488 70.772 53.795 70.7122C53.7411 70.6523 53.6873 70.6224 53.6274 70.6224C53.5795 70.6224 53.5316 70.6463 53.4898 70.6942C53.4479 70.7421 53.4299 70.796 53.4299 70.8678C53.4299 71.0353 53.4957 71.155 53.6214 71.2269C53.6573 71.2508 53.7531 71.2867 53.9147 71.3406C54.2199 71.4244 54.4354 71.5082 54.5551 71.5919C54.7885 71.7655 54.9321 72.0468 54.98 72.4358C54.986 72.4777 54.986 72.5256 54.992 72.5794C54.992 72.6333 54.9979 72.6872 54.9979 72.7291C54.9979 73.16 54.8663 73.4891 54.6029 73.7106C54.3755 73.9021 54.0823 73.9979 53.7232 73.9979C53.6214 73.9979 53.5077 73.9859 53.394 73.962C53.2803 73.938 53.1666 73.9081 53.0648 73.8722C52.9511 73.8423 52.8194 73.7764 52.6758 73.6747C52.5322 73.5729 52.4364 73.4832 52.3945 73.3994V72.3341Z" fill="#C60000"/>
</svg>
