<svg width="91" height="122" viewBox="0 0 91 122" fill="none" xmlns="http://www.w3.org/2000/svg">
<path d="M0 0.0244141V121.999H90.0828V0.0244141H0ZM88.0297 119.91H1.89802V2.36044H88.0297V119.91V119.91Z" fill="white"/>
<path d="M10.8496 56.5916H20.586L23.0224 70.1149L25.4588 56.5916H34.7573V62.7054C34.4653 63.0248 34.2554 63.3533 34.1368 63.6909C34.0181 64.0285 33.9451 64.4665 33.9178 65.0049C33.8904 65.5524 33.8721 66.5014 33.8721 67.8519V81.3753C33.8721 82.2787 33.8904 82.9357 33.9178 83.3646C33.9451 83.7934 34.0181 84.1584 34.1459 84.4596C34.2736 84.7607 34.4744 85.0162 34.7573 85.2352V91.6775H25.6778V85.2535C25.9333 85.0892 26.1341 84.9158 26.2618 84.706C26.3896 84.5052 26.4808 84.2588 26.5173 83.9577C26.563 83.6657 26.5812 83.2733 26.5812 82.7897C26.5812 82.3973 26.5812 82.0506 26.5721 81.7494C26.563 81.4483 26.563 81.1107 26.563 80.7365V73.0076L23.2414 91.6866H21.024L17.7025 73.3361V81.3844C17.7025 82.1874 17.7208 82.8079 17.7481 83.2459C17.7755 83.6839 17.8576 84.0763 17.9945 84.4231C18.1314 84.7698 18.3321 85.0436 18.5968 85.2443V91.6866H10.8496V85.2535C11.2146 85.144 11.461 84.9341 11.5796 84.633C11.6982 84.3227 11.753 83.8847 11.753 83.3281C11.753 83.0634 11.753 82.8353 11.7439 82.6437C11.7347 82.4521 11.7347 82.2513 11.7347 82.0414V66.255C11.7347 66.0269 11.7347 65.8262 11.7439 65.6437C11.7439 65.4612 11.753 65.2422 11.753 64.9684C11.753 64.3935 11.6891 63.919 11.5705 63.5631C11.4518 63.1981 11.2146 62.9153 10.8496 62.7145V56.5916V56.5916Z" fill="white"/>
<path d="M36.6371 56.5916H57.6796V72.3688H52.0859V66.255C52.0859 65.7714 52.022 65.3699 51.8943 65.0414C51.7665 64.7129 51.4563 64.4757 50.9635 64.3297V81.7129C50.9635 83.7935 51.2647 84.9706 51.8578 85.2535V91.6958H42.4589V85.582C43.0612 85.2352 43.3715 84.268 43.3715 82.6802C43.3715 82.3608 43.3715 82.1144 43.3623 81.9502C43.3532 81.7859 43.3532 81.5943 43.3532 81.3936V64.3297C42.8605 64.3297 42.5502 64.5304 42.4224 64.9319C42.2947 65.3334 42.2308 65.8809 42.2308 66.5835V72.378H36.6371V56.5916V56.5916Z" fill="white"/>
<path d="M59.7144 56.5916H70.9109C76.2856 56.5916 78.9683 59.7032 78.9683 65.9265C78.9683 67.7607 78.8223 69.2389 78.5212 70.3522C78.2201 71.4655 77.8186 72.305 77.3076 72.8799C76.7966 73.4547 76.1578 73.9201 75.3822 74.2942C76.6141 74.5862 77.4445 75.1976 77.8733 76.1284C78.3022 77.05 78.5212 78.2728 78.5212 79.7693V82.3426C78.5212 83.2003 78.5668 83.8847 78.6672 84.3866C78.7676 84.8885 79.014 85.2808 79.4155 85.5637V91.6775H71.1299C70.8288 90.3909 70.6828 87.918 70.6828 84.268V81.0468C70.6828 79.9244 70.4729 79.1579 70.0531 78.7655C69.6334 78.3732 69.022 78.0538 68.219 77.8257V82.0141C68.219 82.9813 68.2737 83.7752 68.3741 84.3957C68.4745 85.0162 68.7209 85.4086 69.1133 85.5546V91.6684H59.7144V85.5546C60.1159 85.1075 60.3623 84.5965 60.4627 84.0125C60.563 83.4285 60.6087 82.5433 60.6087 81.3662V66.9029C60.6087 66.6748 60.6087 66.474 60.6178 66.2915C60.6178 66.109 60.6269 65.89 60.6269 65.6163C60.6269 65.0414 60.563 64.5669 60.4444 64.211C60.3258 63.846 60.0794 63.5631 59.7144 63.3624V56.5916V56.5916ZM68.2281 64.0011V71.0822H68.7574C69.46 71.0822 70.0349 70.8906 70.482 70.5073C70.9291 70.1241 71.1573 69.3302 71.1573 68.1257C71.1573 67.8702 71.1481 67.6786 71.139 67.5417C71.0386 65.9995 70.7923 65.0232 70.409 64.6125C70.0258 64.2019 69.2958 64.0011 68.2281 64.0011Z" fill="white"/>
<path d="M6.02242 104.134H8.49531L9.09757 107.455L9.73632 104.134H12.0997V105.649C11.9902 105.767 11.9263 105.886 11.9081 106.014C11.8898 106.141 11.8716 106.433 11.8716 106.899V110.22C11.8716 110.549 11.8807 110.777 11.9081 110.905C11.9263 111.032 11.9902 111.133 12.0997 111.206V112.775H9.79107V111.206C9.8732 111.16 9.92795 111.096 9.95533 111.005C9.9827 110.914 10.001 110.786 10.001 110.622V108.176L9.15232 112.784H8.60481L7.75618 108.258V110.229C7.75618 110.54 7.76531 110.768 7.79268 110.905C7.82006 111.042 7.88393 111.151 7.98431 111.215V112.784H6.02242V111.215C6.10454 111.188 6.15929 111.142 6.18667 111.06C6.21404 110.987 6.23229 110.877 6.23229 110.731V106.214C6.23229 106.032 6.21404 105.895 6.17754 105.822C6.14104 105.749 6.09542 105.694 6.02242 105.658V104.134Z" fill="white"/>
<path d="M12.7294 106.414H14.6548V110.566C14.6548 110.776 14.673 110.949 14.7095 111.086C14.746 111.223 14.7917 111.287 14.8647 111.287V112.774H12.7294V111.369C12.8024 111.314 12.848 111.259 12.8663 111.186C12.8845 111.122 12.9028 111.031 12.9028 110.913V108.577C12.9028 108.394 12.8937 108.266 12.8663 108.193C12.848 108.12 12.8024 108.047 12.7294 107.965V106.414V106.414ZM12.7842 104.981C12.7842 104.662 12.8845 104.415 13.0762 104.242C13.2678 104.069 13.4868 103.977 13.7332 103.977C13.9887 103.977 14.1985 104.06 14.381 104.233C14.5635 104.406 14.6548 104.653 14.6548 104.981C14.6548 105.337 14.5635 105.602 14.3719 105.775C14.1894 105.949 13.9613 106.04 13.6875 106.04C13.432 106.04 13.2222 105.939 13.0488 105.739C12.8754 105.529 12.7842 105.282 12.7842 104.981Z" fill="white"/>
<path d="M15.3392 106.415H17.3193V106.652C17.4836 106.497 17.6569 106.387 17.8303 106.351C18.0128 106.305 18.2136 106.287 18.4326 106.287C18.9436 106.287 19.2994 106.515 19.5002 106.962C19.6188 107.227 19.6827 107.564 19.6827 107.957V110.484C19.6827 110.932 19.7557 111.224 19.9108 111.36V112.766H17.9854C17.9854 112.328 17.9763 111.981 17.9672 111.725C17.9581 111.461 17.9398 111.16 17.9307 110.804V108.805C17.9307 108.623 17.8942 108.449 17.8303 108.303C17.7664 108.157 17.6752 108.084 17.5474 108.084C17.4744 108.084 17.3923 108.112 17.3193 108.167V110.557C17.3193 110.886 17.3923 111.123 17.5292 111.278V112.766H15.3392V111.278C15.4395 111.205 15.5034 111.114 15.5308 110.986C15.5582 110.859 15.5673 110.694 15.5673 110.484V108.568C15.5673 108.404 15.549 108.267 15.5125 108.157C15.476 108.048 15.4213 107.984 15.3392 107.957V106.415Z" fill="white"/>
<path d="M20.5129 104.134H22.493V106.579C22.6755 106.388 22.9493 106.287 23.3052 106.287C23.6976 106.287 24.0352 106.415 24.3089 106.661C24.6374 106.963 24.8017 107.401 24.8017 107.966V110.412C24.8017 110.704 24.8108 110.914 24.8382 111.042C24.8656 111.169 24.9294 111.251 25.0298 111.288V112.775H23.1592C23.1227 112.401 23.0953 112.073 23.077 111.799C23.0588 111.516 23.0497 111.215 23.0497 110.886V108.733C23.0497 108.532 23.0223 108.359 22.9584 108.222C22.8945 108.085 22.8124 108.012 22.712 108.012C22.6208 108.048 22.5569 108.076 22.5022 108.094V110.649C22.5022 110.813 22.5113 110.959 22.5295 111.069C22.5478 111.178 22.5934 111.251 22.6482 111.288V112.775H20.5129V111.288C20.6133 111.215 20.6771 111.133 20.7045 111.032C20.7319 110.932 20.741 110.777 20.741 110.576V106.433C20.741 106.205 20.7228 106.041 20.6863 105.931C20.6498 105.831 20.595 105.767 20.5129 105.74V104.134V104.134Z" fill="white"/>
<path d="M28.0961 104.134H33.3887V108.012H31.9925V106.497C31.9925 106.351 31.9743 106.242 31.9287 106.178C31.8922 106.114 31.81 106.068 31.7097 106.041V110.321C31.7097 110.549 31.7279 110.75 31.7644 110.905C31.8009 111.06 31.8557 111.16 31.9378 111.197V112.766H29.5561V111.279C29.6383 111.233 29.693 111.151 29.7295 111.023C29.766 110.896 29.7843 110.759 29.7843 110.613V106.041C29.6656 106.041 29.5835 106.087 29.5561 106.187C29.5196 106.287 29.5014 106.415 29.5014 106.57V108.003H28.1053V104.134H28.0961Z" fill="white"/>
<path d="M33.8357 106.415H35.7063V106.817C35.7976 106.643 35.8797 106.525 35.9436 106.461C36.0713 106.324 36.2173 106.26 36.3907 106.26H36.6553V108.569C36.6006 108.55 36.5276 108.541 36.4089 108.541C36.2173 108.541 36.0531 108.614 35.9162 108.769C35.7793 108.925 35.7063 109.116 35.7063 109.372V110.567C35.7063 110.795 35.7337 110.978 35.7793 111.105C35.8249 111.233 35.8979 111.324 35.9892 111.361V112.775H33.8357V111.37C33.9361 111.261 33.9999 111.151 34.0273 111.042C34.0547 110.932 34.0638 110.777 34.0638 110.567V108.569C34.0638 108.45 34.0456 108.331 34.0182 108.213C33.9908 108.085 33.9269 107.976 33.8357 107.884V106.415Z" fill="white"/>
<path d="M37.2394 107.053C37.5131 106.761 37.8325 106.561 38.1884 106.451C38.5442 106.342 38.9184 106.287 39.3199 106.287C39.8218 106.287 40.2324 106.424 40.5609 106.688C40.9715 107.026 41.1723 107.519 41.1723 108.176V110.722C41.1723 110.895 41.1905 111.032 41.2361 111.132C41.2909 111.214 41.3365 111.287 41.4004 111.36V112.766H39.548V112.291C39.3929 112.428 39.2469 112.556 39.1009 112.693C38.8819 112.848 38.6355 112.93 38.3526 112.93C37.9694 112.93 37.6591 112.793 37.431 112.519C37.1572 112.191 37.0112 111.698 37.0112 111.05C37.0112 110.539 37.139 110.11 37.3945 109.773C37.6044 109.499 37.8599 109.316 38.1792 109.216L39.4294 108.659V108.34C39.4294 108.194 39.4111 108.066 39.3838 107.966C39.3564 107.865 39.2925 107.82 39.2012 107.811H39.1282C39.0187 107.811 38.9366 107.884 38.891 108.039C38.8362 108.194 38.8089 108.404 38.8089 108.659H37.2394V107.053V107.053ZM39.4294 110.868V110.129C39.2743 110.183 39.1647 110.229 39.0917 110.275C38.8636 110.421 38.7541 110.585 38.7541 110.795C38.7541 111.059 38.8271 111.196 38.9822 111.196C39.0552 111.196 39.1465 111.16 39.2377 111.087C39.3381 111.005 39.402 110.932 39.4294 110.868Z" fill="white"/>
<path d="M41.8291 106.415H43.8092V106.652C43.9735 106.497 44.1469 106.387 44.3202 106.351C44.5027 106.305 44.7035 106.287 44.9225 106.287C45.4335 106.287 45.7894 106.515 45.9901 106.962C46.1087 107.227 46.1726 107.564 46.1726 107.957V110.484C46.1726 110.932 46.2456 111.224 46.4007 111.36V112.766H44.4754C44.4754 112.328 44.4662 111.981 44.4571 111.725C44.448 111.461 44.4297 111.16 44.4206 110.804V108.805C44.4206 108.623 44.3841 108.449 44.3202 108.303C44.2564 108.157 44.1651 108.084 44.0374 108.084C43.9644 108.084 43.8822 108.112 43.8092 108.167V110.557C43.8092 110.886 43.8822 111.123 44.0191 111.278V112.766H41.8291V111.278C41.9295 111.205 41.9934 111.114 42.0207 110.986C42.0481 110.859 42.0572 110.694 42.0572 110.484V108.568C42.0572 108.404 42.039 108.267 42.0025 108.157C41.966 108.048 41.9112 107.984 41.8291 107.957V106.415Z" fill="white"/>
<path d="M49.6402 104.134H51.9488V105.649C51.8941 105.731 51.8484 105.831 51.8211 105.95C51.7937 106.077 51.7754 106.251 51.7754 106.497V107.455H52.4598V106.15C52.4598 105.95 52.4051 105.776 52.2864 105.649V104.134H54.6498V105.649C54.5677 105.767 54.5038 105.895 54.4673 106.05C54.4308 106.196 54.4035 106.342 54.4035 106.479L54.4217 106.826V110.229C54.4217 110.503 54.4308 110.722 54.4582 110.886C54.4856 111.051 54.5495 111.188 54.6498 111.288V112.775H52.2864V111.288C52.3594 111.215 52.4051 111.124 52.4324 111.023C52.4507 110.914 52.4598 110.768 52.4598 110.567V109.125H51.7754V110.321C51.7754 110.576 51.7846 110.777 51.8028 110.914C51.8211 111.051 51.8667 111.169 51.9488 111.279V112.766H49.6402V111.279C49.7223 111.178 49.777 111.06 49.8135 110.923C49.85 110.777 49.8683 110.622 49.8683 110.458V106.579C49.8683 106.296 49.85 106.096 49.8135 105.968C49.777 105.84 49.7223 105.74 49.6402 105.649V104.134Z" fill="white"/>
<path d="M55.1977 110.548V108.322C55.1977 107.564 55.3437 107.026 55.6448 106.734C55.9368 106.433 56.4752 106.287 57.2417 106.287C58.0173 106.287 58.5466 106.433 58.8294 106.716C59.1123 106.999 59.2583 107.537 59.2583 108.331V110.722C59.2583 111.579 59.0941 112.163 58.7564 112.455C58.4736 112.711 57.9626 112.839 57.2326 112.839C56.5025 112.839 55.9915 112.693 55.6995 112.41C55.3619 112.072 55.1977 111.452 55.1977 110.548ZM57.5702 110.713V108.249C57.5702 108.084 57.5337 107.948 57.4698 107.856C57.4059 107.765 57.3238 107.719 57.2326 107.719C57.1413 107.719 57.0592 107.774 56.9953 107.875C56.9314 107.975 56.8949 108.13 56.8949 108.331V110.722C56.8949 110.922 56.9314 111.078 56.9953 111.196C57.0592 111.306 57.1413 111.36 57.2326 111.36C57.3238 111.36 57.4059 111.306 57.4698 111.196C57.5428 111.068 57.5702 110.913 57.5702 110.713Z" fill="white"/>
<path d="M59.8239 104.134H61.7492V110.403C61.7492 110.722 61.7584 110.941 61.7766 111.06C61.7949 111.178 61.8587 111.279 61.9591 111.361V112.766H59.8239V111.361C59.9242 111.288 59.9881 111.188 60.0155 111.06C60.0429 110.923 60.052 110.759 60.052 110.567V106.424C60.052 106.187 60.0429 106.004 60.0155 105.886C59.9881 105.767 59.9242 105.685 59.8239 105.658V104.134Z" fill="white"/>
<path d="M62.3971 110.867V108.239C62.3971 107.719 62.4701 107.299 62.6161 106.989C62.8078 106.56 63.1271 106.35 63.5743 106.35H63.6838C63.9119 106.35 64.0853 106.369 64.2221 106.414C64.3499 106.46 64.5141 106.56 64.7058 106.715V106.341C64.7058 105.94 64.651 105.702 64.5324 105.62V104.106H66.403V110.183C66.403 110.621 66.4213 110.913 66.4487 111.041C66.476 111.168 66.5308 111.26 66.6129 111.323V112.729H64.6966V112.491C64.5963 112.637 64.4411 112.738 64.2404 112.793C64.0305 112.856 63.8115 112.884 63.5743 112.884C63.2275 112.884 62.9538 112.747 62.753 112.473C62.5158 112.154 62.3971 111.679 62.3971 111.05V110.867V110.867ZM64.6966 111.031V108.248C64.651 108.212 64.5963 108.184 64.5324 108.166C64.4685 108.148 64.4138 108.139 64.3499 108.139C64.1583 108.139 64.067 108.358 64.067 108.805V110.082C64.067 110.794 64.1765 111.141 64.4046 111.141C64.5415 111.086 64.6328 111.05 64.6966 111.031Z" fill="white"/>
<path d="M67.1789 106.414H69.1043V110.566C69.1043 110.776 69.1225 110.949 69.159 111.086C69.1955 111.223 69.2412 111.287 69.3142 111.287V112.774H67.1789V111.369C67.2519 111.314 67.2975 111.259 67.3158 111.186C67.334 111.122 67.3523 111.031 67.3523 110.913V108.577C67.3523 108.394 67.3431 108.266 67.3158 108.193C67.2975 108.12 67.2519 108.047 67.1789 107.965V106.414V106.414ZM67.2336 104.981C67.2336 104.662 67.334 104.415 67.5256 104.242C67.7173 104.069 67.9363 103.977 68.1826 103.977C68.4381 103.977 68.648 104.06 68.8305 104.233C69.013 104.406 69.1043 104.653 69.1043 104.981C69.1043 105.337 69.013 105.602 68.8214 105.775C68.6389 105.949 68.4108 106.04 68.137 106.04C67.8815 106.04 67.6716 105.939 67.4983 105.739C67.3158 105.529 67.2336 105.282 67.2336 104.981Z" fill="white"/>
<path d="M69.7794 106.415H71.7595V106.652C71.9237 106.497 72.0971 106.387 72.2705 106.351C72.453 106.305 72.6537 106.287 72.8728 106.287C73.3838 106.287 73.7396 106.515 73.9404 106.962C74.059 107.227 74.1229 107.564 74.1229 107.957V110.484C74.1229 110.932 74.1959 111.224 74.351 111.36V112.766H72.4256C72.4256 112.328 72.4165 111.981 72.4074 111.725C72.3982 111.461 72.38 111.16 72.3709 110.804V108.805C72.3709 108.623 72.3344 108.449 72.2705 108.303C72.2066 108.157 72.1154 108.084 71.9876 108.084C71.9146 108.084 71.8325 108.112 71.7595 108.167V110.557C71.7595 110.886 71.8325 111.123 71.9694 111.278V112.766H69.7794V111.278C69.8797 111.205 69.9436 111.114 69.971 110.986C69.9984 110.859 70.0075 110.694 70.0075 110.484V108.568C70.0075 108.404 69.9892 108.267 69.9527 108.157C69.9162 108.048 69.8615 107.984 69.7794 107.957V106.415Z" fill="white"/>
<path d="M74.9807 111.105V108.55C74.9807 107.802 75.0536 107.282 75.1997 106.971C75.3913 106.552 75.7472 106.351 76.2673 106.351C76.5137 106.351 76.7144 106.378 76.8787 106.424C77.0429 106.47 77.198 106.606 77.344 106.816V106.415H79.2694V107.875C79.1143 107.993 79.0413 108.222 79.0413 108.568V113.003C79.0413 113.97 78.8771 114.618 78.5577 114.965C78.2931 115.248 77.8277 115.394 77.1707 115.394H76.9973C76.6505 115.394 76.2855 115.312 75.8932 115.157C75.5099 115.001 75.2362 114.81 75.081 114.6V113.085H76.7053C76.7053 113.35 76.7235 113.532 76.7509 113.642C76.7783 113.751 76.8604 113.797 76.9882 113.797C77.125 113.797 77.2163 113.76 77.2619 113.678C77.3075 113.596 77.3258 113.468 77.3258 113.295V112.446C77.1889 112.592 77.0429 112.702 76.8787 112.793C76.7144 112.884 76.5228 112.93 76.3038 112.93C75.8658 112.93 75.5373 112.766 75.3092 112.446C75.0902 112.109 74.9807 111.662 74.9807 111.105ZM77.344 111.032V108.167C77.271 108.112 77.1707 108.085 77.0612 108.085C76.833 108.085 76.7235 108.295 76.7235 108.723V110.129C76.7235 110.503 76.7418 110.758 76.7874 110.913C76.833 111.069 76.9152 111.142 77.0429 111.142C77.0612 111.142 77.1068 111.123 77.1889 111.096C77.2528 111.059 77.3075 111.041 77.344 111.032Z" fill="white"/>
<path d="M79.8716 110.312H81.5141V110.786C81.5141 110.95 81.5506 111.087 81.6236 111.188C81.6966 111.288 81.7787 111.343 81.87 111.343C81.9612 111.343 82.0342 111.306 82.0981 111.233C82.162 111.16 82.1893 111.051 82.1893 110.923V110.786C82.1437 110.503 81.8973 110.293 81.4502 110.147C80.8297 109.956 80.5103 109.846 80.4829 109.828C80.2457 109.682 80.0632 109.472 79.9354 109.18C79.8077 108.888 79.7438 108.578 79.7438 108.231C79.7438 107.884 79.8077 107.547 79.9446 107.209C80.0814 106.871 80.2548 106.634 80.4829 106.479C80.6289 106.388 80.8114 106.324 81.0304 106.269C81.2494 106.214 81.4684 106.187 81.6875 106.187C81.943 106.187 82.1893 106.224 82.4175 106.287C82.6456 106.351 82.8372 106.424 82.9923 106.506C83.3208 106.662 83.549 106.871 83.695 107.118V108.633H82.1255V108.231C82.1255 108.067 82.089 107.93 82.0068 107.839C81.9247 107.747 81.8426 107.702 81.7513 107.702C81.6783 107.702 81.6053 107.738 81.5414 107.811C81.4776 107.884 81.4502 107.966 81.4502 108.076C81.4502 108.331 81.5506 108.514 81.7422 108.623C81.7969 108.66 81.943 108.715 82.1893 108.797C82.6547 108.925 82.9832 109.052 83.1657 109.18C83.5216 109.445 83.7406 109.874 83.8136 110.467C83.8227 110.531 83.8227 110.604 83.8318 110.686C83.8318 110.768 83.841 110.85 83.841 110.914C83.841 111.571 83.6402 112.073 83.2387 112.41C82.892 112.702 82.4448 112.848 81.8973 112.848C81.7422 112.848 81.5688 112.83 81.3954 112.794C81.2221 112.757 81.0487 112.712 80.8936 112.657C80.7202 112.611 80.5194 112.511 80.3004 112.356C80.0814 112.201 79.9354 112.064 79.8716 111.936V110.312V110.312Z" fill="white"/>
</svg>
