<svg width="20" height="20" viewBox="0 0 20 20" fill="none" xmlns="http://www.w3.org/2000/svg">
<path d="M10 0.833008C12.4906 0.833008 12.8014 0.842174 13.7785 0.888008C14.7548 0.933841 15.4194 1.08692 16.0042 1.31426C16.6092 1.54709 17.1189 1.86242 17.6285 2.37117C18.0947 2.82941 18.4553 3.38371 18.6855 3.99551C18.9119 4.57942 19.0659 5.24492 19.1117 6.22117C19.1548 7.19834 19.1667 7.50909 19.1667 9.99967C19.1667 12.4903 19.1575 12.801 19.1117 13.7782C19.0659 14.7544 18.9119 15.419 18.6855 16.0038C18.456 16.616 18.0952 17.1704 17.6285 17.6282C17.1702 18.0941 16.6159 18.4548 16.0042 18.6851C15.4203 18.9115 14.7548 19.0655 13.7785 19.1113C12.8014 19.1544 12.4906 19.1663 10 19.1663C7.50946 19.1663 7.19871 19.1572 6.22154 19.1113C5.24529 19.0655 4.58071 18.9115 3.99587 18.6851C3.38384 18.4554 2.82944 18.0947 2.37154 17.6282C1.90533 17.17 1.54464 16.6157 1.31462 16.0038C1.08729 15.4199 0.934207 14.7544 0.888374 13.7782C0.845291 12.801 0.833374 12.4903 0.833374 9.99967C0.833374 7.50909 0.842541 7.19834 0.888374 6.22117C0.934207 5.24401 1.08729 4.58034 1.31462 3.99551C1.54401 3.38334 1.90478 2.82889 2.37154 2.37117C2.82957 1.9048 3.38393 1.54409 3.99587 1.31426C4.58071 1.08692 5.24437 0.933841 6.22154 0.888008C7.19871 0.844924 7.50946 0.833008 10 0.833008ZM10 5.41634C8.78446 5.41634 7.61868 5.89923 6.75913 6.75877C5.89959 7.61831 5.41671 8.7841 5.41671 9.99967C5.41671 11.2153 5.89959 12.381 6.75913 13.2406C7.61868 14.1001 8.78446 14.583 10 14.583C11.2156 14.583 12.3814 14.1001 13.2409 13.2406C14.1005 12.381 14.5834 11.2153 14.5834 9.99967C14.5834 8.7841 14.1005 7.61831 13.2409 6.75877C12.3814 5.89923 11.2156 5.41634 10 5.41634ZM15.9584 5.18717C15.9584 4.88328 15.8377 4.59183 15.6228 4.37695C15.4079 4.16206 15.1164 4.04134 14.8125 4.04134C14.5086 4.04134 14.2172 4.16206 14.0023 4.37695C13.7874 4.59183 13.6667 4.88328 13.6667 5.18717C13.6667 5.49107 13.7874 5.78252 14.0023 5.9974C14.2172 6.21229 14.5086 6.33301 14.8125 6.33301C15.1164 6.33301 15.4079 6.21229 15.6228 5.9974C15.8377 5.78252 15.9584 5.49107 15.9584 5.18717ZM10 7.24967C10.7294 7.24967 11.4289 7.53941 11.9446 8.05513C12.4603 8.57086 12.75 9.27033 12.75 9.99967C12.75 10.729 12.4603 11.4285 11.9446 11.9442C11.4289 12.4599 10.7294 12.7497 10 12.7497C9.27069 12.7497 8.57122 12.4599 8.0555 11.9442C7.53977 11.4285 7.25004 10.729 7.25004 9.99967C7.25004 9.27033 7.53977 8.57086 8.0555 8.05513C8.57122 7.53941 9.27069 7.24967 10 7.24967Z" fill="#848484"/>
</svg>
